<svg width="41" height="43" fill="none" xmlns="http://www.w3.org/2000/svg"><ellipse cx="20.5" cy="21.121" rx="20.5" ry="21.121" fill="#101010"/><path d="M10 19.5H8.5v3H10v-3ZM29 21l1.124.993.86-.972-.84-.99L29 21Zm-19 1.5h19v-3H10v3Zm10.858-8.449c1.037 1.055 2.775 3.02 4.28 4.753a386.6 386.6 0 0 1 2.662 3.1l.042.05.01.011.003.003v.001L29 21l1.145-.97h-.001l-.003-.004-.011-.013a19.151 19.151 0 0 1-.203-.239 422.687 422.687 0 0 0-2.525-2.937C25.908 15.116 24.11 13.08 23 11.949l-2.14 2.102Zm7.018 5.956-7.071 8 2.247 1.986 7.072-8-2.248-1.986Z" fill="#2BFD86"/></svg>